# Blender 4.4.3
# www.blender.org
mtllib ak47.mtl
o Cube
v 0.094601 0.230632 -0.194669
v 0.094601 -0.242554 -0.194669
v 0.094601 0.230632 0.400584
v 0.094601 -0.064204 0.278517
v -0.094601 0.230632 -0.194669
v -0.094601 -0.242554 -0.194669
v -0.094601 0.230632 0.400584
v -0.094601 -0.064204 0.278517
v -0.000000 0.222442 0.251566
v -0.000000 0.222255 1.432796
v 0.018186 0.220651 0.251554
v 0.018186 0.220464 1.432784
v 0.035673 0.215347 0.251520
v 0.035673 0.215159 1.432751
v 0.051789 0.206732 0.251465
v 0.051789 0.206545 1.432696
v 0.065914 0.195140 0.251392
v 0.065914 0.194952 1.432622
v 0.077507 0.181014 0.251302
v 0.077507 0.180826 1.432532
v 0.086121 0.164898 0.251199
v 0.086121 0.164710 1.432429
v 0.091426 0.147411 0.251087
v 0.091426 0.147223 1.432318
v 0.093217 0.129225 0.250971
v 0.093217 0.129038 1.432202
v 0.091426 0.111040 0.250855
v 0.091426 0.110852 1.432086
v 0.086121 0.093553 0.250744
v 0.086121 0.093365 1.431975
v 0.077507 0.077437 0.250641
v 0.077507 0.077249 1.431872
v 0.065914 0.063311 0.250551
v 0.065914 0.063123 1.431782
v 0.051789 0.051718 0.250477
v 0.051789 0.051531 1.431708
v 0.035673 0.043104 0.250422
v 0.035673 0.042916 1.431653
v 0.018186 0.037799 0.250389
v 0.018186 0.037612 1.431619
v -0.000000 0.036008 0.250377
v -0.000000 0.035821 1.431608
v -0.018186 0.037799 0.250389
v -0.018186 0.037612 1.431619
v -0.035673 0.043104 0.250422
v -0.035673 0.042916 1.431653
v -0.051789 0.051718 0.250477
v -0.051789 0.051531 1.431708
v -0.065914 0.063311 0.250551
v -0.065914 0.063123 1.431782
v -0.077507 0.077437 0.250641
v -0.077507 0.077249 1.431872
v -0.086121 0.093553 0.250744
v -0.086121 0.093365 1.431975
v -0.091426 0.111040 0.250855
v -0.091426 0.110852 1.432086
v -0.093217 0.129225 0.250971
v -0.093217 0.129038 1.432202
v -0.091426 0.147411 0.251087
v -0.091426 0.147223 1.432318
v -0.086121 0.164898 0.251199
v -0.086121 0.164710 1.432429
v -0.077507 0.181014 0.251302
v -0.077507 0.180826 1.432532
v -0.065914 0.195140 0.251392
v -0.065914 0.194952 1.432622
v -0.051789 0.206732 0.251465
v -0.051789 0.206545 1.432696
v -0.035673 0.215347 0.251520
v -0.035673 0.215159 1.432751
v -0.018186 0.220651 0.251554
v -0.018186 0.220464 1.432784
v -0.097925 -0.077940 0.823848
v -0.097925 0.268031 0.823848
v -0.097925 -0.077940 0.350662
v -0.097925 0.268031 0.350662
v 0.097925 -0.077940 0.823848
v 0.097925 0.268031 0.823848
v 0.097925 -0.077940 0.350662
v 0.097925 0.268031 0.350662
v -0.069916 -0.300776 0.841810
v -0.069916 0.138864 0.666821
v -0.069916 -0.410785 0.565426
v -0.069916 0.028856 0.390437
v 0.069916 -0.300776 0.841810
v 0.069916 0.138864 0.666821
v 0.069916 -0.410785 0.565426
v 0.069916 0.028856 0.390437
vn -0.0000 1.0000 -0.0000
vn -0.0000 -0.3825 0.9239
vn -1.0000 -0.0000 -0.0000
vn -0.0000 -0.9357 0.3527
vn 1.0000 -0.0000 -0.0000
vn -0.0000 -0.0000 -1.0000
vn -0.0000 0.7301 -0.6833
vn -0.0000 1.0000 0.0002
vn 0.1950 0.9808 0.0002
vn 0.1417 0.7162 -0.6834
vn 0.3825 0.9239 0.0001
vn 0.2779 0.6750 -0.6835
vn 0.5554 0.8316 0.0001
vn 0.4035 0.6080 -0.6837
vn 0.7069 0.7073 0.0001
vn 0.5138 0.5179 -0.6840
vn 0.8313 0.5558 0.0001
vn 0.6044 0.4079 -0.6844
vn 0.9237 0.3830 0.0001
vn 0.6718 0.2824 -0.6848
vn 0.9807 0.1955 -0.0000
vn 0.7135 0.1460 -0.6852
vn 1.0000 0.0004 -0.0000
vn 0.7279 0.0041 -0.6857
vn 0.9809 -0.1947 -0.0000
vn 0.7142 -0.1380 -0.6862
vn 0.9240 -0.3824 -0.0001
vn 0.6731 -0.2747 -0.6866
vn 0.8316 -0.5553 -0.0001
vn 0.6061 -0.4009 -0.6870
vn 0.7073 -0.7069 -0.0001
vn 0.5156 -0.5115 -0.6874
vn 0.5557 -0.8314 -0.0001
vn 0.4052 -0.6024 -0.6877
vn 0.3828 -0.9238 -0.0001
vn 0.2792 -0.6700 -0.6879
vn 0.1952 -0.9808 -0.0002
vn 0.1424 -0.7116 -0.6880
vn -0.0000 -1.0000 -0.0002
vn -0.0000 -0.7256 -0.6881
vn -0.1952 -0.9808 -0.0002
vn -0.1424 -0.7116 -0.6880
vn -0.3828 -0.9238 -0.0001
vn -0.2792 -0.6700 -0.6879
vn -0.5557 -0.8313 -0.0001
vn -0.4052 -0.6024 -0.6877
vn -0.7073 -0.7069 -0.0001
vn -0.5156 -0.5115 -0.6874
vn -0.8316 -0.5553 -0.0001
vn -0.6061 -0.4009 -0.6870
vn -0.9240 -0.3824 -0.0001
vn -0.6731 -0.2747 -0.6866
vn -0.9809 -0.1947 -0.0000
vn -0.7142 -0.1380 -0.6862
vn -1.0000 0.0004 -0.0000
vn -0.7279 0.0041 -0.6857
vn -0.9807 0.1955 -0.0000
vn -0.7135 0.1460 -0.6852
vn -0.9237 0.3830 0.0001
vn -0.6718 0.2824 -0.6848
vn -0.8313 0.5558 0.0001
vn -0.6044 0.4079 -0.6844
vn -0.7069 0.7073 0.0001
vn -0.5138 0.5179 -0.6840
vn -0.5554 0.8316 0.0001
vn -0.4035 0.6080 -0.6837
vn -0.3825 0.9239 0.0001
vn -0.2779 0.6750 -0.6835
vn -0.0000 -0.0064 1.0000
vn -0.1950 0.9808 0.0002
vn -0.1417 0.7162 -0.6834
vn -0.0000 -0.0000 1.0000
vn -0.0000 -1.0000 -0.0000
vn -0.0000 -0.3698 -0.9291
vn -0.0000 0.3698 0.9291
vn -0.0000 -0.9291 0.3698
vn -0.0000 0.9291 -0.3698
vt 0.387049 0.327612
vt 0.487072 0.327903
vt 0.487072 0.642816
vt 0.387049 0.642525
vt 0.104323 0.845305
vt 0.104323 0.992314
vt 0.004113 0.992314
vt 0.004113 0.845305
vt 0.098575 0.068765
vt 0.254733 0.004113
vt 0.254733 0.319385
vt 0.004113 0.319385
vt 0.633764 0.638405
vt 0.733973 0.638405
vt 0.733973 0.896094
vt 0.633764 0.896093
vt 0.513580 0.319385
vt 0.262960 0.319385
vt 0.262960 0.004113
vt 0.419118 0.068765
vt 0.487258 0.651043
vt 0.487258 0.900598
vt 0.387049 0.900598
vt 0.387049 0.651043
vt 0.713633 0.629028
vt 0.713632 0.004113
vt 0.723189 0.004193
vt 0.723189 0.629107
vt 0.732262 0.004371
vt 0.732262 0.629286
vt 0.740503 0.004642
vt 0.740504 0.629557
vt 0.747597 0.004996
vt 0.747597 0.629910
vt 0.669678 0.004547
vt 0.669678 0.630178
vt 0.662196 0.630132
vt 0.662196 0.004501
vt 0.653660 0.630079
vt 0.653660 0.004448
vt 0.644399 0.630021
vt 0.644399 0.004390
vt 0.634767 0.629962
vt 0.634767 0.004330
vt 0.625135 0.629902
vt 0.625135 0.004270
vt 0.615873 0.629844
vt 0.615873 0.004213
vt 0.607337 0.629791
vt 0.607337 0.004160
vt 0.599855 0.629745
vt 0.599855 0.004113
vt 0.825646 0.005424
vt 0.825646 0.628821
vt 0.818164 0.628265
vt 0.818164 0.004867
vt 0.809628 0.627852
vt 0.809628 0.004454
vt 0.800367 0.627597
vt 0.800367 0.004199
vt 0.790735 0.627511
vt 0.790735 0.004113
vt 0.781103 0.627597
vt 0.781103 0.004199
vt 0.771841 0.627852
vt 0.771841 0.004454
vt 0.763305 0.628265
vt 0.763305 0.004867
vt 0.755823 0.628821
vt 0.755823 0.005424
vt 0.521806 0.630178
vt 0.521806 0.004547
vt 0.529288 0.004501
vt 0.529288 0.630132
vt 0.537824 0.004447
vt 0.537824 0.630079
vt 0.547086 0.004390
vt 0.547086 0.630021
vt 0.556718 0.004330
vt 0.556718 0.629961
vt 0.566350 0.004270
vt 0.566350 0.629902
vt 0.575611 0.004213
vt 0.575611 0.629844
vt 0.584147 0.004159
vt 0.584147 0.629791
vt 0.591629 0.004113
vt 0.591629 0.629744
vt 0.677904 0.629707
vt 0.677904 0.004792
vt 0.685747 0.004482
vt 0.685747 0.629397
vt 0.694545 0.004261
vt 0.694545 0.629176
vt 0.965039 0.929893
vt 0.965039 0.939571
vt 0.963166 0.949066
vt 0.959493 0.958013
vt 0.954161 0.966069
vt 0.947374 0.972923
vt 0.939393 0.978313
vt 0.930526 0.982031
vt 0.921112 0.983935
vt 0.911514 0.983950
vt 0.902101 0.982078
vt 0.893233 0.978389
vt 0.885252 0.973025
vt 0.878466 0.966193
vt 0.873133 0.958155
vt 0.869460 0.949220
vt 0.867588 0.939731
vt 0.867588 0.930054
vt 0.869460 0.920559
vt 0.873133 0.911611
vt 0.878466 0.903556
vt 0.885253 0.896701
vt 0.893233 0.891312
vt 0.902101 0.887594
vt 0.911514 0.885690
vt 0.921112 0.885674
vt 0.930526 0.887547
vt 0.939393 0.891236
vt 0.947374 0.896599
vt 0.954161 0.903431
vt 0.959493 0.911469
vt 0.963166 0.920404
vt 0.703961 0.004136
vt 0.703961 0.629051
vt 0.292481 0.899234
vt 0.290602 0.908728
vt 0.286916 0.917673
vt 0.281564 0.925725
vt 0.274753 0.932575
vt 0.266744 0.937959
vt 0.257845 0.941672
vt 0.248398 0.943569
vt 0.238766 0.943578
vt 0.229319 0.941698
vt 0.220420 0.938003
vt 0.212411 0.932634
vt 0.205600 0.925797
vt 0.200249 0.917755
vt 0.196563 0.908817
vt 0.194683 0.899327
vt 0.194683 0.889648
vt 0.196563 0.880154
vt 0.200249 0.871210
vt 0.205600 0.863158
vt 0.212411 0.856308
vt 0.220420 0.850923
vt 0.229319 0.847211
vt 0.238766 0.845314
vt 0.248398 0.845305
vt 0.257845 0.847184
vt 0.266744 0.850879
vt 0.274753 0.856249
vt 0.281564 0.863086
vt 0.286916 0.871128
vt 0.290602 0.880066
vt 0.292481 0.889556
vt 0.378822 0.578232
vt 0.195581 0.578232
vt 0.195581 0.327612
vt 0.378822 0.327612
vt 0.937603 0.004113
vt 0.937603 0.186576
vt 0.833872 0.186576
vt 0.833872 0.004113
vt 0.187354 0.578232
vt 0.004113 0.578232
vt 0.004113 0.327612
vt 0.187354 0.327612
vt 0.937603 0.194802
vt 0.937603 0.376649
vt 0.833872 0.376649
vt 0.833872 0.194802
vt 0.521806 0.638405
vt 0.625537 0.638405
vt 0.625537 0.888134
vt 0.521806 0.888134
vt 0.859361 0.887685
vt 0.755823 0.887383
vt 0.755823 0.637048
vt 0.859361 0.637350
vt 0.161668 0.586458
vt 0.161668 0.837078
vt 0.004113 0.837078
vt 0.004113 0.586458
vt 0.941649 0.637048
vt 0.941649 0.877448
vt 0.867588 0.877448
vt 0.867588 0.637048
vt 0.327450 0.586458
vt 0.327449 0.837078
vt 0.169895 0.837078
vt 0.169895 0.586458
vt 0.907934 0.384875
vt 0.907934 0.627369
vt 0.833872 0.627369
vt 0.833872 0.384875
vt 0.916160 0.384875
vt 0.990222 0.384875
vt 0.990222 0.535650
vt 0.916160 0.535650
vt 0.186457 0.994340
vt 0.112549 0.995887
vt 0.112549 0.846852
vt 0.186457 0.845305
s 0
usemtl Material
f 1/1/1 5/2/1 7/3/1 3/4/1
f 4/5/2 3/6/2 7/7/2 8/8/2
f 8/9/3 7/10/3 5/11/3 6/12/3
f 6/13/4 2/14/4 4/15/4 8/16/4
f 2/17/5 1/18/5 3/19/5 4/20/5
f 6/21/6 5/22/6 1/23/6 2/24/6
s 1
f 9/25/7 10/26/8 12/27/9 11/28/10
f 11/28/10 12/27/9 14/29/11 13/30/12
f 13/30/12 14/29/11 16/31/13 15/32/14
f 15/32/14 16/31/13 18/33/15 17/34/16
f 17/35/16 18/36/15 20/37/17 19/38/18
f 19/38/18 20/37/17 22/39/19 21/40/20
f 21/40/20 22/39/19 24/41/21 23/42/22
f 23/42/22 24/41/21 26/43/23 25/44/24
f 25/44/24 26/43/23 28/45/25 27/46/26
f 27/46/26 28/45/25 30/47/27 29/48/28
f 29/48/28 30/47/27 32/49/29 31/50/30
f 31/50/30 32/49/29 34/51/31 33/52/32
f 33/53/32 34/54/31 36/55/33 35/56/34
f 35/56/34 36/55/33 38/57/35 37/58/36
f 37/58/36 38/57/35 40/59/37 39/60/38
f 39/60/38 40/59/37 42/61/39 41/62/40
f 41/62/40 42/61/39 44/63/41 43/64/42
f 43/64/42 44/63/41 46/65/43 45/66/44
f 45/66/44 46/65/43 48/67/45 47/68/46
f 47/68/46 48/67/45 50/69/47 49/70/48
f 49/71/48 50/72/47 52/73/49 51/74/50
f 51/74/50 52/73/49 54/75/51 53/76/52
f 53/76/52 54/75/51 56/77/53 55/78/54
f 55/78/54 56/77/53 58/79/55 57/80/56
f 57/80/56 58/79/55 60/81/57 59/82/58
f 59/82/58 60/81/57 62/83/59 61/84/60
f 61/84/60 62/83/59 64/85/61 63/86/62
f 63/86/62 64/85/61 66/87/63 65/88/64
f 65/89/64 66/90/63 68/91/65 67/92/66
f 67/92/66 68/91/65 70/93/67 69/94/68
s 0
f 12/95/69 10/96/69 72/97/69 70/98/69 68/99/69 66/100/69 64/101/69 62/102/69 60/103/69 58/104/69 56/105/69 54/106/69 52/107/69 50/108/69 48/109/69 46/110/69 44/111/69 42/112/69 40/113/69 38/114/69 36/115/69 34/116/69 32/117/69 30/118/69 28/119/69 26/120/69 24/121/69 22/122/69 20/123/69 18/124/69 16/125/69 14/126/69
s 1
f 69/94/68 70/93/67 72/127/70 71/128/71
f 71/128/71 72/127/70 10/26/8 9/25/7
f 9/129/7 11/130/10 13/131/12 15/132/14 17/133/16 19/134/18 21/135/20 23/136/22 25/137/24 27/138/26 29/139/28 31/140/30 33/141/32 35/142/34 37/143/36 39/144/38 41/145/40 43/146/42 45/147/44 47/148/46 49/149/48 51/150/50 53/151/52 55/152/54 57/153/56 59/154/58 61/155/60 63/156/62 65/157/64 67/158/66 69/159/68 71/160/71
s 0
f 73/161/3 74/162/3 76/163/3 75/164/3
f 75/165/6 76/166/6 80/167/6 79/168/6
f 79/169/5 80/170/5 78/171/5 77/172/5
f 77/173/72 78/174/72 74/175/72 73/176/72
f 75/177/73 79/178/73 77/179/73 73/180/73
f 80/181/1 76/182/1 74/183/1 78/184/1
f 81/185/3 82/186/3 84/187/3 83/188/3
f 83/189/74 84/190/74 88/191/74 87/192/74
f 87/193/5 88/194/5 86/195/5 85/196/5
f 85/197/75 86/198/75 82/199/75 81/200/75
f 83/201/76 87/202/76 85/203/76 81/204/76
f 88/205/77 84/206/77 82/207/77 86/208/77
